# xmcd
#
# Track frame offsets:
#	150
#	19724
#	38570
#	61313
#	68452
#
# Disc length: 1166 seconds
#
# Revision: 1
# Processed by: cddbd v1.5.1PL0 Copyright (c) Steve Scherf et al.
# Submitted via: CDex 1.50Beta5
#
DISCID=32048c05
DTITLE=宮本駿一 - 白夜 〜True Light〜
DYEAR=2003
DGENRE=Soundtrack
TTITLE0=白夜 〜True Light〜 (Full Version)
TTITLE1=白夜 〜True Light〜 (Piano Solo)
TTITLE2=白夜 〜True Light〜 (Acoustic Version)
TTITLE3=白夜 〜True Light〜 (TV Version)
TTITLE4=白夜 〜True Light〜 (Original Karaoke)
EXTD=
EXTT0=
EXTT1=
EXTT2=
EXTT3=
EXTT4=
PLAYORDER=
